<svg xmlns="http://www.w3.org/2000/svg" width="1920" height="300" viewBox="0 0 1920 300"><defs><style>.a{fill:#6abe0b;}.b{fill:#fff;opacity:0.1;}</style></defs><g transform="translate(0 -6860)"><rect class="a" width="1920" height="300" transform="translate(0 6860)"/><path class="b" d="M1920,300H1740.022l-43.961-.3h-129.81l172.542-112.742a94.072,94.072,0,0,1,114.942,9.351,95.157,95.157,0,0,1,15.67,18.582l50.6,78.388V300ZM108.172,300H99.506a5.718,5.718,0,0,1,.2-7.534A5.669,5.669,0,0,1,108.172,300ZM61.2,300H50.59a5.683,5.683,0,0,1,5.307-7.66,5.616,5.616,0,0,1,3.855,1.53A5.7,5.7,0,0,1,61.2,300Zm-47.6,0H2.306a5.668,5.668,0,0,1,5.648-5.974,5.613,5.613,0,0,1,3.855,1.529A5.687,5.687,0,0,1,13.6,300Zm17.487-19.558a5.62,5.62,0,0,1-3.856-1.53,5.722,5.722,0,0,1-.278-8.04,5.671,5.671,0,1,1,4.134,9.57Zm47.943-1.686a5.618,5.618,0,0,1-3.855-1.526,5.724,5.724,0,0,1-.278-8.042,5.671,5.671,0,1,1,4.134,9.569Zm47.944-1.685a5.616,5.616,0,0,1-3.856-1.527,5.719,5.719,0,0,1-.278-8.039,5.67,5.67,0,1,1,4.134,9.566ZM6.278,257.163a5.611,5.611,0,0,1-3.855-1.53,5.688,5.688,0,0,1,3.858-9.845,5.61,5.61,0,0,1,3.853,1.526,5.688,5.688,0,0,1-3.856,9.849Zm47.943-1.686a5.623,5.623,0,0,1-3.856-1.526,5.721,5.721,0,0,1-.278-8.04,5.67,5.67,0,1,1,4.134,9.566Zm47.94-1.685a5.663,5.663,0,0,1-5.645-5.487,5.671,5.671,0,0,1,5.651-5.888,5.606,5.606,0,0,1,3.852,1.53,5.686,5.686,0,0,1-3.858,9.845ZM29.412,232.2a5.663,5.663,0,0,1-5.648-5.489,5.67,5.67,0,0,1,5.651-5.888,5.621,5.621,0,0,1,3.853,1.529,5.719,5.719,0,0,1,.278,8.04A5.642,5.642,0,0,1,29.412,232.2Zm47.944-1.682a5.62,5.62,0,0,1-3.855-1.529,5.689,5.689,0,0,1,3.858-9.849,5.689,5.689,0,0,1,0,11.378ZM52.545,207.24a5.6,5.6,0,0,1-3.852-1.529,5.69,5.69,0,0,1,3.855-9.848,5.606,5.606,0,0,1,3.855,1.53,5.715,5.715,0,0,1,.279,8.04A5.653,5.653,0,0,1,52.545,207.24Zm218.525-31.372a93.551,93.551,0,0,1-52.712-16.253L.91,0H441.5L349.434,133.98A94.242,94.242,0,0,1,271.069,175.868ZM1793.7,106.957a5.62,5.62,0,0,1-3.856-1.53,5.72,5.72,0,0,1-.278-8.039,5.631,5.631,0,0,1,7.989-.282,5.69,5.69,0,0,1-3.855,9.85Zm-24.814-23.279a5.611,5.611,0,0,1-3.849-1.526,5.722,5.722,0,0,1-.282-8.04,5.67,5.67,0,1,1,4.131,9.567ZM1816.837,82a5.689,5.689,0,1,1,3.854-9.851,5.719,5.719,0,0,1,.279,8.041A5.648,5.648,0,0,1,1816.837,82ZM1744.082,60.4a5.6,5.6,0,0,1-3.853-1.53,5.622,5.622,0,1,1,3.853,1.53Zm47.943-1.686a5.605,5.605,0,0,1-3.852-1.526,5.69,5.69,0,0,1,3.855-9.85,5.689,5.689,0,0,1,0,11.377Zm47.943-1.685a5.605,5.605,0,0,1-3.853-1.526,5.631,5.631,0,1,1,3.853,1.526ZM1719.274,37.123a5.616,5.616,0,0,1-3.855-1.526,5.635,5.635,0,1,1,3.855,1.526Zm47.945-1.685a5.618,5.618,0,0,1-3.854-1.526,5.687,5.687,0,0,1,3.858-9.848,5.615,5.615,0,0,1,3.852,1.526,5.716,5.716,0,0,1,.279,8.04A5.657,5.657,0,0,1,1767.219,35.438Zm47.941-1.682a5.593,5.593,0,0,1-3.853-1.53,5.671,5.671,0,1,1,7.711-8.318,5.722,5.722,0,0,1,.278,8.04A5.658,5.658,0,0,1,1815.161,33.756Zm47.943-1.686a5.619,5.619,0,0,1-3.855-1.526,5.724,5.724,0,0,1-.278-8.04,5.628,5.628,0,0,1,7.992-.282,5.723,5.723,0,0,1,.278,8.041A5.657,5.657,0,0,1,1863.1,32.071ZM1742.408,12.163a5.668,5.668,0,0,1-5.648-5.49,5.647,5.647,0,0,1,9.507-4.358,5.721,5.721,0,0,1,.278,8.04A5.657,5.657,0,0,1,1742.408,12.163Zm47.943-1.682a5.671,5.671,0,0,1-5.649-5.493,5.669,5.669,0,0,1,1.515-4.077A5.806,5.806,0,0,1,1787.3,0h6.1a5.848,5.848,0,0,1,.806.629,5.716,5.716,0,0,1,.278,8.04A5.662,5.662,0,0,1,1790.351,10.481ZM1838.3,8.8a5.62,5.62,0,0,1-3.855-1.53A5.7,5.7,0,0,1,1833.559,0h9.476a5.7,5.7,0,0,1-.6,6.984A5.657,5.657,0,0,1,1838.3,8.8Z" transform="translate(-0.627 6860)"/></g></svg>