<svg xmlns="http://www.w3.org/2000/svg" xmlns:xlink="http://www.w3.org/1999/xlink" width="73" height="73" viewBox="0 0 73 73"><defs><style>.a{fill:#729f48;}.b{clip-path:url(#a);}.c{fill:url(#b);}</style><clipPath id="a"><rect class="a" width="73" height="73" transform="translate(0.452 0.484)"/></clipPath><linearGradient id="b" x1="0.5" x2="0.5" y2="1" gradientUnits="objectBoundingBox"><stop offset="0" stop-color="#8db661"/><stop offset="1" stop-color="#729f48"/></linearGradient></defs><g class="b" transform="translate(-0.452 -0.484)"><g transform="translate(0.414)"><path class="c" d="M37.864,71.177a1.167,1.167,0,0,1-.344-.829V68H18.76v4.689H16.415V68H12.9a5.87,5.87,0,0,1-5.863-5.863V45.434a9.682,9.682,0,0,1-2.344.293V43.381a6.96,6.96,0,0,0,7.035-7.035A1.173,1.173,0,0,1,12.9,35.174h4.69a4.7,4.7,0,0,0,4.54-3.518H8.208a1.174,1.174,0,0,1-1.173-1.172V27.452L2.345,32.143V72.694H0V31.657a1.174,1.174,0,0,1,.344-.829l6.69-6.691V5.863A5.87,5.87,0,0,1,12.9,0H66.832a5.869,5.869,0,0,1,5.862,5.863V62.141A5.873,5.873,0,0,1,68,67.885v4.809H65.659V49.827a1.756,1.756,0,0,0-3.513,0l0,9.971H59.8V49.828a1.759,1.759,0,0,0-3.517,0V59.8H53.934V49.828a1.759,1.759,0,0,0-3.518,0V59.8H48.072V33.413a1.759,1.759,0,0,0-3.517,0V65.659H42.21v-5.38l-2.345,2.347v7.237l2,2-1.658,1.658ZM9.38,44.5V62.141A3.522,3.522,0,0,0,12.9,65.659H37.519V62.141a1.174,1.174,0,0,1,.342-.829l4.348-4.351V33.413a4.1,4.1,0,0,1,8.207,0V46.137a4.046,4.046,0,0,1,4.69.829,4.084,4.084,0,0,1,5.865,0A4.094,4.094,0,0,1,68,49.828V65.443a3.513,3.513,0,0,0,2.345-3.3V5.863a3.522,3.522,0,0,0-3.518-3.517H12.9A3.521,3.521,0,0,0,9.38,5.863V29.312H23.45a1.173,1.173,0,0,1,1.173,1.173,7.042,7.042,0,0,1-7.035,7.035H14A9.234,9.234,0,0,1,9.38,44.5Zm21.1,17.643V59.8H34v2.345Zm-16.415,0V59.8h12.9v2.345Zm16.415-4.69V55.107H34v2.344Zm-16.415,0V55.107h12.9v2.344Zm16.415-4.689V50.416H34v2.345Zm-16.415,0V50.416h12.9v2.345Zm1.173-4.69A1.173,1.173,0,0,1,14.07,46.9V41.037a1.174,1.174,0,0,1,1.173-1.173H32.83A1.173,1.173,0,0,1,34,41.037V46.9a1.173,1.173,0,0,1-1.172,1.173Zm1.172-2.345H31.657V42.209H16.415Zm45.726-4.689V38.692h3.518v2.345Zm-9.379,0V38.692h5.862v2.345Zm9.379-4.69V34h3.518v2.344Zm-9.379,0V34h5.862v2.344Zm-22.278,0V34H34v2.344Zm31.656-4.69V29.312h3.518v2.345Zm-9.379,0V29.312h5.862v2.345Zm-22.278,0V29.312H34v2.345Zm31.656-4.689V24.622h3.518v2.345Zm-16.414,0V24.622h12.9v2.345Zm-7.035,0V4.69h2.344V26.967Zm-8.208,0V24.622H34v2.345Zm-16.415,0V24.622h12.9v2.345Zm48.072-4.69V19.933h3.518v2.344Zm-16.414,0V19.933h12.9v2.344Zm-15.243,0V19.933H34v2.344Zm-16.415,0V19.933h12.9v2.344Zm48.072-4.689V15.242h3.518v2.345Zm-16.414,0V15.242h12.9v2.345Zm-15.243,0V15.242H34v2.345Zm-16.415,0V15.242h12.9v2.345ZM46.9,12.9a1.173,1.173,0,0,1-1.172-1.173V5.863A1.173,1.173,0,0,1,46.9,4.69H64.486a1.173,1.173,0,0,1,1.172,1.173v5.862A1.173,1.173,0,0,1,64.486,12.9Zm1.172-2.345H63.314V7.035H48.072ZM15.243,12.9a1.173,1.173,0,0,1-1.173-1.173V5.863A1.174,1.174,0,0,1,15.243,4.69H32.83A1.173,1.173,0,0,1,34,5.863v5.862A1.173,1.173,0,0,1,32.83,12.9Zm1.172-2.345H31.657V7.035H16.415Z" transform="translate(0)"/></g></g></svg>