<svg xmlns="http://www.w3.org/2000/svg" width="123" height="123" viewBox="0 0 123 123"><defs><style>.a{fill:#64ba02;}.b{fill:#fff;}</style></defs><g transform="translate(-117 -1063)"><circle class="a" cx="61.5" cy="61.5" r="61.5" transform="translate(117 1063)"/><g transform="translate(141 1090)"><g transform="translate(56.316 44.136)"><path class="b" d="M393.505,315.154a5.558,5.558,0,1,1,5.558-5.558A5.567,5.567,0,0,1,393.505,315.154Zm0-8.213a2.655,2.655,0,1,0,2.655,2.655A2.66,2.66,0,0,0,393.505,306.941Z" transform="translate(-387.943 -304.038)"/></g><g transform="translate(0 0)"><path class="b" d="M26.288,24.836V14.6h24.34a8.274,8.274,0,1,1,0,16.547h-10a1.452,1.452,0,0,0,0,2.9h10a11.177,11.177,0,1,0,0-22.354H26.288V1.452A1.452,1.452,0,0,0,24.836,0H1.452A1.452,1.452,0,0,0,0,1.452V24.836a1.452,1.452,0,0,0,1.452,1.452H24.836a1.452,1.452,0,0,0,1.452-1.452ZM10.421,2.9h5.446V8.4L13.908,7.195a1.452,1.452,0,0,0-1.523,0L10.421,8.4V2.9ZM23.385,23.385H2.9V2.9H7.518V11a1.452,1.452,0,0,0,2.213,1.236l3.415-2.1,3.411,2.1A1.452,1.452,0,0,0,18.77,11V2.9h4.615V23.385Z" transform="translate(0 0)"/><path class="b" d="M104.582,246.368c2.97-3.9,5.716-7.644,5.659-13.276a12.115,12.115,0,0,0-24.23,0c-.057,5.631,2.689,9.373,5.661,13.275-2.928.818-4.938,2.172-5.679,3.818H49.8a4.488,4.488,0,1,1,0-8.976H69.488a7.391,7.391,0,1,0,0-14.783h-18.4a4.486,4.486,0,1,1,0-8.972H63.838a1.452,1.452,0,1,0,0-2.9H51.086a7.389,7.389,0,0,0,0,14.779h18.4a4.488,4.488,0,1,1,0,8.976H49.8a7.391,7.391,0,1,0,0,14.783H85.991a6.829,6.829,0,0,0,3.795,3.168,24.337,24.337,0,0,0,16.679,0c2.649-1.118,4.108-2.759,4.108-4.62,0-2.3-2.242-4.221-5.992-5.269ZM88.913,233.116c0-.005,0-.01,0-.015a9.212,9.212,0,1,1,18.424,0c0,.005,0,.01,0,.015.051,4.777-2.421,8.023-5.284,11.78-.3.392-3.209,3.862-3.209,3.862a1.152,1.152,0,0,1-.717.465,1.2,1.2,0,0,1-.719-.463s-2.905-3.467-3.2-3.856C91.338,241.144,88.863,237.9,88.913,233.116Zm9.214,21.712c-6.177,0-9.547-2.107-9.547-3.19,0-.738,1.624-2.066,5.092-2.765l1.538,1.785a3.824,3.824,0,0,0,2.907,1.469h.019a3.821,3.821,0,0,0,2.9-1.47l1.54-1.784c3.466.7,5.089,2.027,5.089,2.765C107.67,252.72,104.3,254.828,98.127,254.828Z" transform="translate(-36.249 -183.407)"/><path class="b" d="M224.953,216a1.452,1.452,0,0,0,1.452,1.452h0A1.452,1.452,0,1,0,224.953,216Z" transform="translate(-192.298 -183.405)"/></g></g></g></svg>