<svg xmlns="http://www.w3.org/2000/svg" width="123" height="123" viewBox="0 0 123 123"><defs><style>.a{fill:#64ba02;}.b{fill:#fff;}</style></defs><g transform="translate(-117 -667)"><circle class="a" cx="61.5" cy="61.5" r="61.5" transform="translate(117 667)"/><g transform="translate(142 674.995)"><path class="b" d="M72.369,42.851V38.716a1.413,1.413,0,0,0-.09-.5l-4.24-11.308a1.413,1.413,0,0,0-1.323-.917H5.654a1.413,1.413,0,0,0-1.323.917L.09,38.22a1.413,1.413,0,0,0-.09.5v4.134a5.768,5.768,0,0,0,3.675,5.368V75.467a4.245,4.245,0,0,0,4.24,4.24H28.181l-1.029,8.481H22.757a1.413,1.413,0,1,0,0,2.827H48.2a1.413,1.413,0,1,0,0-2.827H43.8l-1.029-8.481h14.72l.69,1.87a2.372,2.372,0,0,0,3.959,1.015l1.043-1.042,2.4,2.4a2.376,2.376,0,0,0,3.36,0l2.723-2.723a2.379,2.379,0,0,0,0-3.36l-2.4-2.4,1.042-1.042A2.376,2.376,0,0,0,69.4,70.5l-.71-.262V48.218a5.768,5.768,0,0,0,3.675-5.368Zm-2.827-3.878v3.878a2.933,2.933,0,1,1-5.866,0V38.716a1.408,1.408,0,0,0-.053-.383l-2.675-9.512h4.787ZM11.52,38.912l2.838-10.09h4.859L17.41,38.456a1.412,1.412,0,0,0-.024.261v4.134a2.933,2.933,0,1,1-5.866,0V38.912Zm8.693-.064,1.88-10.026H27l-.915,9.763q-.006.066-.006.132v4.134a2.933,2.933,0,1,1-5.866,0Zm8.693-.065.934-9.961h4.932V42.851a2.933,2.933,0,1,1-5.866,0ZM37.6,28.822H42.53l.934,9.961v4.068a2.933,2.933,0,1,1-5.866,0Zm8.687,9.763-.915-9.763h4.907l1.88,10.026v4a2.933,2.933,0,1,1-5.866,0V38.716c0-.044,0-.088-.006-.132Zm8.675-.128-1.806-9.634h4.859l2.838,10.09v3.939a2.933,2.933,0,0,1-5.866,0V38.716A1.412,1.412,0,0,0,54.959,38.456Zm-52.132.517L6.633,28.822h4.787L8.746,38.334a1.412,1.412,0,0,0-.053.383v4.134a2.933,2.933,0,1,1-5.866,0ZM40.956,88.188H30l1.029-8.481h8.9Zm28.4-8.637L67.27,81.636l-3.085-3.085a1.413,1.413,0,0,0-2,0l-1.538,1.538L56.462,68.743l11.348,4.184-1.54,1.54a1.413,1.413,0,0,0,0,2ZM56.489,65.74l-.035-.012a2.373,2.373,0,0,0-3.013,2.992l.015.044.909,2.463H41.837a1.413,1.413,0,1,0,0,2.827H55.408l1.043,2.827H7.915A1.415,1.415,0,0,1,6.5,75.467V74.053H29.116a1.413,1.413,0,0,0,0-2.827H6.5V48.561a5.755,5.755,0,0,0,3.6-1.935,5.752,5.752,0,0,0,8.693,0,5.752,5.752,0,0,0,8.693,0,5.752,5.752,0,0,0,8.693,0,5.752,5.752,0,0,0,8.693,0,5.752,5.752,0,0,0,8.693,0,5.752,5.752,0,0,0,8.693,0,5.755,5.755,0,0,0,3.6,1.935V69.2Z" transform="translate(0 0)"/><path class="b" d="M228.067,216a1.413,1.413,0,0,0-1.413,1.413v8.481a1.413,1.413,0,0,1-2.827,0v-8.481a1.413,1.413,0,1,0-2.827,0v8.481a4.24,4.24,0,1,0,8.481,0v-8.481A1.414,1.414,0,0,0,228.067,216Z" transform="translate(-189.763 -163.148)"/><path class="b" d="M150.239,216h-2.827A1.413,1.413,0,0,0,146,217.412V228.72a1.413,1.413,0,0,0,1.413,1.413h2.827a4.238,4.238,0,0,0,3.158-7.067A4.238,4.238,0,0,0,150.239,216Zm0,2.827a1.413,1.413,0,1,1,0,2.827h-1.413v-2.827Zm0,8.481h-1.413V224.48h1.413a1.413,1.413,0,1,1,0,2.827Z" transform="translate(-125.363 -163.148)"/><path class="b" d="M303.068,216a1.413,1.413,0,0,0-1.413,1.413v4.046a1.413,1.413,0,0,1-2.827,0v-4.046a1.413,1.413,0,1,0-2.827,0v4.046a4.247,4.247,0,0,0,2.827,4v3.264a1.413,1.413,0,0,0,2.827,0v-3.264a4.247,4.247,0,0,0,2.827-4v-4.046A1.413,1.413,0,0,0,303.068,216Z" transform="translate(-254.163 -163.148)"/><path class="b" d="M242.411,346h0a1.413,1.413,0,1,0,1.414,1.413A1.413,1.413,0,0,0,242.41,346Z" transform="translate(-206.933 -274.777)"/></g></g></svg>