<svg xmlns="http://www.w3.org/2000/svg" width="123" height="123" viewBox="0 0 123 123"><defs><style>.a{fill:#e1fee1;}.b{fill:#5dcb1f;}</style></defs><g transform="translate(-548 -274)"><g transform="translate(-424 -2936)"><circle class="a" cx="61.5" cy="61.5" r="61.5" transform="translate(972 3210)"/><g transform="translate(999 3210.533)"><g transform="translate(22.644 50.323)"><path class="b" d="M163.237,192.372a3.358,3.358,0,0,0-5.835,2.208,1.079,1.079,0,0,0,1.061,1.1h.019a1.079,1.079,0,0,0,1.078-1.061,1.2,1.2,0,0,1,1.22-1.178,1.185,1.185,0,0,1,.864.389,1.079,1.079,0,1,0,1.593-1.455Z" transform="translate(-157.402 -191.28)"/></g><g transform="translate(28.426 53.057)"><g transform="translate(0 0)"><path class="b" d="M203.387,212.157a3.082,3.082,0,0,0-5.726.137,1.079,1.079,0,1,0,2.023.751.928.928,0,0,1,1.189-.546.911.911,0,0,1,.528.5,1.079,1.079,0,0,0,1.986-.844Z" transform="translate(-197.594 -210.283)"/></g></g><g transform="translate(38.316 45.06)"><g transform="translate(0 0)"><path class="b" d="M269.2,155.009a1.079,1.079,0,0,0-1.526,0l-1.017,1.019a1.079,1.079,0,0,0,1.527,1.524l1.017-1.019A1.079,1.079,0,0,0,269.2,155.009Z" transform="translate(-266.339 -154.693)"/></g></g><g transform="translate(31.945 59.304)"><path class="b" d="M224.566,253.709h-1.438a1.079,1.079,0,1,0,0,2.158h1.438a1.079,1.079,0,1,0,0-2.158Z" transform="translate(-222.049 -253.709)"/></g><g transform="translate(42.971 59.304)"><path class="b" d="M301.209,253.709h-1.438a1.079,1.079,0,1,0,0,2.158h1.438a1.079,1.079,0,0,0,0-2.158Z" transform="translate(-298.692 -253.709)"/></g><g transform="translate(0 26.637)"><g transform="translate(0 0)"><path class="b" d="M73.623,78.759l-.281-1.517A2.047,2.047,0,0,0,70.959,75.6l-5.72,1.051,2.59-1.732a2.039,2.039,0,0,0,.644-2.7l-.784-1.388a2.04,2.04,0,0,0-2.049-1.022,27.293,27.293,0,0,0,.437-4.873A1.8,1.8,0,0,0,65,63.292a8.274,8.274,0,0,0,.066-6.261,1.309,1.309,0,0,0-.732-.734,8.208,8.208,0,0,0-3.05-.586q-.2,0-.4.01a5.688,5.688,0,0,0-6.853-5.294,8.89,8.89,0,0,0-.5-4.749,1.326,1.326,0,0,0-.746-.752,8.868,8.868,0,0,0-8.015.735A10.671,10.671,0,0,0,42.23,41.6a1.832,1.832,0,0,0-2.593,0l-5.224,5.236a5.423,5.423,0,0,0-3.62-1.378,5.457,5.457,0,0,0-3.9,1.635,5.423,5.423,0,0,0-4.023-.287V42.769a5.094,5.094,0,0,0-5-5.091V35.39a1.8,1.8,0,0,0,1.491-1.77V28.435a1.8,1.8,0,0,0-1.8-1.8H8.8a1.8,1.8,0,0,0-1.8,1.8V33.62a1.8,1.8,0,0,0,1.491,1.77v2.288a5.094,5.094,0,0,0-5,5.091V74.26A10.306,10.306,0,0,0,0,81.922c0,5.9,5.183,10.709,11.553,10.709l43.186-.013a4.939,4.939,0,0,0,4.887-5.711l8.626,1.55a2.062,2.062,0,0,0,.363.032,2.046,2.046,0,0,0,2.025-1.742l.234-1.568a2.04,2.04,0,0,0-1.566-2.292l-3.04-.7,5.714-1.05a2.043,2.043,0,0,0,1.643-2.381ZM61.289,57.869a6.051,6.051,0,0,1,1.9.306,6.111,6.111,0,0,1-.516,4.962H59.768l.927-.93a1.079,1.079,0,0,0-1.528-1.524l-.491.492a5,5,0,0,0-1.16-1.992A6.033,6.033,0,0,1,61.289,57.869ZM55.2,52.464a3.543,3.543,0,0,1,3.534,3.544c0,.036,0,.072,0,.108a8.2,8.2,0,0,0-3.08,1.827c-.142-.054-.287-.1-.435-.145a5.005,5.005,0,0,0-2.983-3.71A3.528,3.528,0,0,1,55.2,52.464Zm-5.7-6.01a6.684,6.684,0,0,1,2.147.353,6.76,6.76,0,0,1-.267,4.983A5.73,5.73,0,0,0,50,53.706a5.094,5.094,0,0,0-.576.066,5.038,5.038,0,0,0-2.294,1.046,5.71,5.71,0,0,0-.816-1.133l2.474-2.48a1.079,1.079,0,0,0-1.528-1.524l-2.7,2.711A5.64,5.64,0,0,0,42.9,51.9a6.734,6.734,0,0,1,6.6-5.446ZM41.232,63.137H40.3a1.078,1.078,0,0,0-2.007,0h-1.1a1.078,1.078,0,0,0-1.683-1.326L34.49,62.83a1.074,1.074,0,0,0-.213.307h-2.2A8.534,8.534,0,0,1,30.7,58.782H47.814a8.534,8.534,0,0,1-1.384,4.354H44.145a1.075,1.075,0,0,0-.213-.307l-1.017-1.019a1.078,1.078,0,0,0-1.683,1.326Zm-2.509-6.512a3.531,3.531,0,0,1,6.822,0H38.723ZM40.93,43.357a8.533,8.533,0,0,1,2.038,3.81A8.887,8.887,0,0,0,41.6,49.131a1.072,1.072,0,0,0-.562-.159H39.6a1.079,1.079,0,1,0,0,2.158h1.261a8.936,8.936,0,0,0-.166.9,5.643,5.643,0,0,0-1.221.477,5.447,5.447,0,0,0-3.321-2.537l0-.009a5.462,5.462,0,0,0-.433-1.382Zm-19.5,9.736a3.257,3.257,0,0,1-.143-.541,3.293,3.293,0,0,1,2.68-3.8,3.329,3.329,0,0,1,.569-.049,3.26,3.26,0,0,1,1.964.656,1.079,1.079,0,0,0,1.545-.268,3.267,3.267,0,0,1,2.182-1.428,3.329,3.329,0,0,1,.57-.049,3.272,3.272,0,0,1,3.23,2.72,3.307,3.307,0,0,1,.048.559,1.079,1.079,0,0,0,.985,1.073A3.284,3.284,0,0,1,37.765,53.9a5.689,5.689,0,0,0-1.247,2.724H30.365a1.834,1.834,0,0,0-1.7,1.141A8.234,8.234,0,0,0,21,56.932a1.308,1.308,0,0,0-.731.733,8.266,8.266,0,0,0-.5,1.918,3.283,3.283,0,0,1,1.1-5.147A1.079,1.079,0,0,0,21.425,53.093Zm3.216,9.748.294.3H22.344a6.114,6.114,0,0,1-.2-4.327,6.07,6.07,0,0,1,6.638,1.964,10.659,10.659,0,0,0,.826,2.363H27.984l-1.815-1.819a1.079,1.079,0,0,0-1.528,1.524Zm-4.595.3H16.2a3.549,3.549,0,0,1,1.673-2.461,5.425,5.425,0,0,0,1.968,1.631A8.345,8.345,0,0,0,20.046,63.137ZM9.157,28.795h8.055V33.26H9.157Zm6.564,6.623v2.258H10.649V35.418ZM5.653,47.145H12.66a1.079,1.079,0,0,0,0-2.158H5.653V42.769a2.934,2.934,0,0,1,2.926-2.935h9.211a2.934,2.934,0,0,1,2.926,2.935v2.218H18.7a1.079,1.079,0,0,0,0,2.158h2.015V48.1a5.438,5.438,0,0,0-1.561,4.818l0,.011a5.452,5.452,0,0,0-2.286,5.418c.021.124.048.245.078.366a5.721,5.721,0,0,0-1.438,1.13H5.653ZM5.653,62h8.605a5.661,5.661,0,0,0-.235,1.133h-.182a1.8,1.8,0,0,0-1.8,1.8,27.3,27.3,0,0,0,.468,5.041c-.31-.025-.628-.038-.951-.038a9.832,9.832,0,0,0-3.5.583C6.6,71.1,6.2,71.916,6.109,72.482c-.154.077-.306.158-.456.241V62ZM19.316,75.258a4.085,4.085,0,0,1,.764.766h-.04a6.7,6.7,0,0,1-2.956-.937,7.777,7.777,0,0,1-1.238-.841,1.079,1.079,0,0,0-1.4,0,7.732,7.732,0,0,1-1.237.84,6.7,6.7,0,0,1-2.956.937h-.04a4.08,4.08,0,0,1,.764-.766,1.079,1.079,0,0,0-.549-1.914,5.155,5.155,0,0,1-2.03-.587,6.145,6.145,0,0,1,3.155-.658,6.725,6.725,0,0,1,3.063.6,1.079,1.079,0,0,0,1.056,0,6.729,6.729,0,0,1,3.064-.6,6.145,6.145,0,0,1,3.155.658,5.151,5.151,0,0,1-2.031.587,1.079,1.079,0,0,0-.549,1.914ZM17.158,88.391l.037.2a4.914,4.914,0,0,0,.777,1.882H11.553c-5.18,0-9.4-3.836-9.4-8.551a8.476,8.476,0,0,1,4.869-7.49,4.636,4.636,0,0,0,1.241.636A2.556,2.556,0,0,0,7.9,76.134a1.757,1.757,0,0,0,.429,1.33,2.449,2.449,0,0,0,1.925.718,8.911,8.911,0,0,0,4-1.207q.472-.261.89-.55.417.288.89.55a8.915,8.915,0,0,0,4,1.207h0a2.449,2.449,0,0,0,1.925-.718,1.757,1.757,0,0,0,.429-1.331,2.556,2.556,0,0,0-.364-1.067,4.645,4.645,0,0,0,1.241-.636A8.729,8.729,0,0,1,27.9,79.983l-7.631,2.9A4.934,4.934,0,0,0,17.158,88.391Zm39.728,1.067a2.792,2.792,0,0,1-2.148,1H53.605L52.9,86.64a1.079,1.079,0,0,0-2.122.393l.635,3.428H47.7l-.478-2.583a1.079,1.079,0,0,0-2.122.393l.406,2.191-8.635,0-.65-3.509a1.079,1.079,0,0,0-2.122.393l.577,3.116-12.609,0h0A2.79,2.79,0,0,1,19.316,88.2l-.037-.2a2.776,2.776,0,0,1,1.751-3.1l4.241-1.611.316,1.705a1.079,1.079,0,0,0,1.06.883,1.093,1.093,0,0,0,.2-.018,1.079,1.079,0,0,0,.864-1.258l-.387-2.091,6.295-2.391a1.079,1.079,0,0,0-.766-2.017L29.92,79.213a10.934,10.934,0,0,0-5.732-6.732c-.088-.565-.491-1.382-1.947-1.957a9.832,9.832,0,0,0-3.5-.583,10.946,10.946,0,0,0-2.513.28v-.652a1.078,1.078,0,0,0-1.746-.847,25.206,25.206,0,0,1-.281-3.428H49.345a1.079,1.079,0,0,0,0-2.158H48.9a10.681,10.681,0,0,0,1.075-4.678,1.836,1.836,0,0,0-1.657-1.825,2.844,2.844,0,0,1,1.471-.736,2.911,2.911,0,0,1,.5-.043A2.851,2.851,0,0,1,53.1,58.223a2.885,2.885,0,0,1,.042.488,1.079,1.079,0,0,0,.985,1.074A2.86,2.86,0,0,1,56.7,62.142a2.82,2.82,0,0,1-.007.994H55.531a1.079,1.079,0,0,0,0,2.158h8.386a24.871,24.871,0,0,1-.757,5.788l-5.847,3.452a4.953,4.953,0,0,0-6.522-3.25L38.748,75.86a1.079,1.079,0,0,0,.766,2.017l1.587-.6.493,2.66a1.079,1.079,0,0,0,1.06.883,1.092,1.092,0,0,0,.2-.018,1.079,1.079,0,0,0,.864-1.257L43.151,76.5,51.557,73.3a2.8,2.8,0,0,1,2.368.174A2.772,2.772,0,0,1,55.3,75.394l2.183,11.785A2.76,2.76,0,0,1,56.886,89.458Zm3.85-8.446a1.079,1.079,0,0,0-.046,2.113l8.033,1.843-.2,1.346L59.209,84.64l-1.456-7.86,8.112-4.788.676,1.2L59.7,77.762a1.079,1.079,0,0,0,.795,1.958l10.747-1.974.239,1.292Z" transform="translate(0 -26.637)"/></g></g></g></g></g></svg>