<svg xmlns="http://www.w3.org/2000/svg" xmlns:xlink="http://www.w3.org/1999/xlink" width="73" height="73" viewBox="0 0 73 73"><defs><style>.a{fill:url(#a);}.b{clip-path:url(#b);}.c{fill:url(#c);}</style><linearGradient id="a" x1="-0.074" y1="0.44" x2="1.039" y2="0.72" gradientUnits="objectBoundingBox"><stop offset="0" stop-color="#8db661"/><stop offset="1" stop-color="#3d6715"/></linearGradient><clipPath id="b"><rect class="a" width="73" height="73" transform="translate(0.325 0.484)"/></clipPath><linearGradient id="c" x1="0.5" x2="0.5" y2="1" gradientUnits="objectBoundingBox"><stop offset="0" stop-color="#8db661"/><stop offset="1" stop-color="#729f48"/></linearGradient></defs><g class="b" transform="translate(-0.325 -0.484)"><g transform="translate(0 9.048)"><path class="c" d="M61.869,55.422H37.125a1.436,1.436,0,0,1,0-2.872H55.748a8.3,8.3,0,0,1-1.416-8.616H52.514a7.1,7.1,0,0,1-5.7,2.877H26.107a1.5,1.5,0,0,1,.028.287,8.339,8.339,0,0,1-8.329,8.329c-.055,0-.111,0-.166-.005H1.436a1.436,1.436,0,0,1,0-2.872H11.519A8.286,8.286,0,0,1,9.478,47.1a1.405,1.405,0,0,1,.029-.287H1.436A1.437,1.437,0,0,1,0,45.375V44.29A21.827,21.827,0,0,1,6.845,28.406l-3.18-3.179A4.315,4.315,0,0,1,0,20.966V13.5a13.608,13.608,0,0,1,.1-1.675c0-.009,0-.017,0-.026a1.447,1.447,0,0,1,.067-.434A13.517,13.517,0,0,1,13.5,0H22.76a4.312,4.312,0,0,1,4.307,4.308V16.9a4.288,4.288,0,0,1,1.436-.247h5.241a4.307,4.307,0,0,1,2.147,8.04,4.312,4.312,0,0,1,.51,2.037v11.46h6.2A5.693,5.693,0,0,0,48.3,32.508l.007-4.771A1.436,1.436,0,0,1,49.743,26.3h0a1.436,1.436,0,0,1,1.434,1.438l-.007,4.77a8.565,8.565,0,0,1-8.564,8.555H34.967a1.436,1.436,0,0,1-1.436-1.436v-12.9a1.461,1.461,0,0,0-1.458-1.459H21.885A19.037,19.037,0,0,0,2.875,43.939h2.95a11.991,11.991,0,0,1,4.527-8.053.03.03,0,0,0,.008-.007,11.951,11.951,0,0,1,7.446-2.571A12.082,12.082,0,0,1,29.784,43.939H46.815a4.218,4.218,0,0,0,3.67-2.144l6.821-12.151L53.7,13.357H51.189v2.894a1.436,1.436,0,0,1-2.872,0V13.357H40.926a3.733,3.733,0,1,1,0-7.467h3.4a3.589,3.589,0,0,1,3.345-2.3h8.476a3.578,3.578,0,0,1,2.686,1.213,4.279,4.279,0,0,1,2.336-.692h2.872A1.437,1.437,0,0,1,65.481,5.55v5.745a1.436,1.436,0,0,1-1.436,1.435H61.173a4.286,4.286,0,0,1-2.277-.653,3.588,3.588,0,0,1-2.261,1.246l3.347,15.119A14.085,14.085,0,0,1,73.522,42.5a1.436,1.436,0,0,1-1.436,1.436H69.737a8.326,8.326,0,0,1-7.7,11.493C61.979,55.427,61.924,55.424,61.869,55.422ZM56.578,47.1a5.461,5.461,0,0,0,5.291,5.451h.166c.019,0,.037,0,.055,0a5.456,5.456,0,0,0,4.391-8.619H57.588A5.451,5.451,0,0,0,56.578,47.1Zm-44.229,0A5.461,5.461,0,0,0,17.64,52.55h.166c.019,0,.037,0,.055,0a5.462,5.462,0,0,0,5.4-5.454,1.516,1.516,0,0,1,.028-.287H12.321A1.423,1.423,0,0,1,12.35,47.1Zm-.21-8.964a.085.085,0,0,0-.013.009,9.136,9.136,0,0,0-3.4,5.8H26.889a9.21,9.21,0,0,0-9.083-7.759A9.1,9.1,0,0,0,12.14,38.134Zm42.049,2.928h16.37a11.211,11.211,0,0,0-10.895-9.754ZM9.065,26.564a21.648,21.648,0,0,1,2-1.29H7.775Zm18-5.6A1.438,1.438,0,0,0,28.5,22.4h5.241a1.436,1.436,0,0,0,0-2.872H28.5A1.438,1.438,0,0,0,27.068,20.966ZM2.872,13.5v7.47A1.438,1.438,0,0,0,4.307,22.4H22.759A1.438,1.438,0,0,0,24.2,20.966V4.308a1.437,1.437,0,0,0-1.436-1.436H13.5a10.642,10.642,0,0,0-10.15,7.486H18.593a1.436,1.436,0,0,1,0,2.872H2.879C2.876,13.319,2.872,13.407,2.872,13.5ZM46.961,7.178V9.772a.714.714,0,0,0,.714.713h8.476a.714.714,0,0,0,.714-.713V7.178a.715.715,0,0,0-.714-.714H47.675A.715.715,0,0,0,46.961,7.178Zm-6.9,2.446a.863.863,0,0,0,.862.862h3.235a3.543,3.543,0,0,1-.072-.713V8.761H40.926A.863.863,0,0,0,40.064,9.623Zm19.673-1.2a1.437,1.437,0,0,0,1.435,1.436h1.436V6.986H61.173A1.437,1.437,0,0,0,59.738,8.422ZM30.366,55a1.436,1.436,0,1,1,1.016.421A1.447,1.447,0,0,1,30.366,55ZM48.315,22a1.433,1.433,0,0,1,1.433-1.436h.005A1.436,1.436,0,1,1,48.315,22Z" transform="translate(0 0)"/></g></g></svg>