<svg xmlns="http://www.w3.org/2000/svg" xmlns:xlink="http://www.w3.org/1999/xlink" width="73" height="73" viewBox="0 0 73 73"><defs><style>.a{fill:url(#a);}.b{clip-path:url(#b);}</style><linearGradient id="a" x1="0.5" x2="0.5" y2="1" gradientUnits="objectBoundingBox"><stop offset="0" stop-color="#8db661"/><stop offset="1" stop-color="#729f48"/></linearGradient><clipPath id="b"><rect class="a" width="73" height="73" transform="translate(0.07 0.484)"/></clipPath></defs><g class="b" transform="translate(-0.07 -0.484)"><g transform="translate(0 0)"><path class="a" d="M66.35,23.116V8.244H49L42.835,2.959a7.6,7.6,0,0,0-9.889,0L26.78,8.244H9.43V23.116l-8.3,7.114V74.651H74.651V30.23Zm-43.436,29L3.5,70.689V33.551Zm-5.183-24.9h1.186V24.846H17.731a1.186,1.186,0,1,1,0-2.372h.2a1.19,1.19,0,0,1,.838.347l1.686,1.686a3.431,3.431,0,0,0,0,3.048l-1.686,1.686a1.192,1.192,0,0,1-.838.347h-.2a1.186,1.186,0,0,1,0-2.372Zm11.858-2.372H28.4v2.372h1.186a1.186,1.186,0,0,1,0,2.372h-.2a1.19,1.19,0,0,1-.838-.347l-1.686-1.686a3.431,3.431,0,0,0,0-3.048l1.686-1.686a1.192,1.192,0,0,1,.838-.347h.2a1.186,1.186,0,0,1,0,2.372Zm-5.929,0a1.186,1.186,0,1,1-1.186,1.186A1.186,1.186,0,0,1,23.66,24.846Zm6.4,23.717h15.65L70.509,72.28H5.27Zm22.8,3.558L72.28,33.551V70.691ZM71.7,30.824,66.35,35.939v-9.7Zm-7.721,7.384L51.15,50.479l-4.484-4.288H29.114l-4.268,4.082V33.806a10.908,10.908,0,0,1,2.372,6.456v3.558h2.372V40.262c0-3.707-1.678-6.171-3.027-8.15a11.279,11.279,0,0,1-1.569-2.787c.066-.027.127-.062.191-.092l1.686,1.686a3.531,3.531,0,0,0,2.515,1.042h.2a3.542,3.542,0,0,0,2.633-5.929A3.542,3.542,0,0,0,29.589,20.1h-.2a3.536,3.536,0,0,0-2.515,1.042l-1.686,1.686a3.477,3.477,0,0,0-.338-.138V10.616H63.979ZM34.49,4.759a5.363,5.363,0,0,1,6.8,0l4.067,3.485H30.423ZM22.474,10.616V22.692a3.534,3.534,0,0,0-.338.138L20.45,21.144A3.54,3.54,0,0,0,17.935,20.1h-.2A3.542,3.542,0,0,0,15.1,26.032a3.542,3.542,0,0,0,2.633,5.929h.2a3.536,3.536,0,0,0,2.515-1.042l1.686-1.686c.064.031.125.065.191.092a11.279,11.279,0,0,1-1.569,2.787c-1.349,1.979-3.027,4.443-3.027,8.15H20.1a10.908,10.908,0,0,1,2.372-6.456V48.417L11.8,38.208V10.616ZM9.43,35.939,4.081,30.823,9.43,26.238Z" transform="translate(-1.129 -1.129)"/><path class="a" d="M45.275,30.994v2.544h2.372V30.994a3.372,3.372,0,0,0,.5-6.24L45.836,23.6a1.012,1.012,0,0,1,.452-1.919h.345a1.015,1.015,0,0,1,1.014,1.013v.173h2.372v-.173a3.376,3.376,0,0,0-2.372-3.212V16.935H45.275v2.544a3.372,3.372,0,0,0-.5,6.24l2.311,1.156a1.012,1.012,0,0,1-.452,1.919h-.345a1.015,1.015,0,0,1-1.014-1.013v-.173H42.9v.173A3.378,3.378,0,0,0,45.275,30.994Z" transform="translate(0.973 -0.334)"/><path class="a" d="M46.915,38.508A13.044,13.044,0,1,0,33.871,25.464,13.06,13.06,0,0,0,46.915,38.508Zm0-23.717A10.673,10.673,0,1,1,36.243,25.464,10.684,10.684,0,0,1,46.915,14.791Z" transform="translate(0.518 -0.561)"/><path class="a" d="M47.419,39.516h2.372v2.372H47.419Z" transform="translate(1.2 0.803)"/><path class="a" d="M42.9,39.516h2.372v2.372H42.9Z" transform="translate(0.973 0.803)"/><path class="a" d="M38.387,39.516h2.372v2.372H38.387Z" transform="translate(0.746 0.803)"/><path class="a" d="M51.935,39.516h2.372v2.372H51.935Z" transform="translate(1.427 0.803)"/><path class="a" d="M27.267,55.323a3.558,3.558,0,1,0,3.558,3.558A3.562,3.562,0,0,0,27.267,55.323Zm0,4.743a1.186,1.186,0,1,1,1.186-1.186A1.186,1.186,0,0,1,27.267,60.066Z" transform="translate(0.007 1.598)"/><path class="a" d="M36.3,55.323a3.558,3.558,0,1,0,3.558,3.558A3.562,3.562,0,0,0,36.3,55.323Zm0,4.743a1.186,1.186,0,1,1,1.186-1.186A1.186,1.186,0,0,1,36.3,60.066Z" transform="translate(0.462 1.598)"/><path class="a" d="M45.332,55.323a3.558,3.558,0,1,0,3.558,3.558A3.562,3.562,0,0,0,45.332,55.323Zm0,4.743a1.186,1.186,0,1,1,1.186-1.186A1.186,1.186,0,0,1,45.332,60.066Z" transform="translate(0.916 1.598)"/><path class="a" d="M5.645,38.387H8.017v2.372H5.645Z" transform="translate(-0.902 0.746)"/><path class="a" d="M5.645,47.419H8.017v2.372H5.645Z" transform="translate(-0.902 1.2)"/><path class="a" d="M5.645,42.9H8.017v2.372H5.645Z" transform="translate(-0.902 0.973)"/><path class="a" d="M64.355,49.677h2.372v2.372H64.355Z" transform="translate(2.052 1.314)"/><path class="a" d="M64.355,54.194h2.372v2.372H64.355Z" transform="translate(2.052 1.541)"/><path class="a" d="M64.355,58.71h2.372v2.372H64.355Z" transform="translate(2.052 1.768)"/></g></g></svg>