<svg xmlns="http://www.w3.org/2000/svg" width="123" height="123" viewBox="0 0 123 123"><defs><style>.a{fill:#e1fee1;}.b{fill:#64ba02;}</style></defs><g transform="translate(-117 -861)"><circle class="a" cx="61.5" cy="61.5" r="61.5" transform="translate(117 861)"/><g transform="translate(137.282 893.999)"><path class="b" d="M92.961,13.9,67.975.18a1.453,1.453,0,0,0-1.4,0l-9.4,5.159a1.456,1.456,0,0,0-.578.317L41.591,13.9a1.453,1.453,0,0,0-.754,1.273v2.97H24.078a1.453,1.453,0,0,0,0,2.905h16.76v5.23H32.51a1.453,1.453,0,0,0,0,2.905h8.328v7.554h-12.2a1.453,1.453,0,1,0,0,2.905h12.2v2.971a1.453,1.453,0,0,0,.754,1.273l24.986,13.72a1.452,1.452,0,0,0,1.4,0l24.985-13.72a1.453,1.453,0,0,0,.754-1.273V36.108a1.453,1.453,0,1,0-2.905,0v5.645L68.729,53.878V29.752L75.751,25.9v6.119A1.453,1.453,0,0,0,77.9,33.289l5.354-2.947a1.453,1.453,0,0,0,.752-1.273V21.362l6.8-3.733v6.858a1.453,1.453,0,0,0,2.905,0V15.173a1.453,1.453,0,0,0-.754-1.273ZM65.823,53.878,43.743,41.753V17.628l22.08,12.124Zm1.453-26.642L45.309,15.173l6.9-3.791L74.181,23.445ZM77.2,21.787,55.231,9.725l2.382-1.307L79.58,20.48ZM81.1,28.211l-2.448,1.348V24.3L81.1,22.957ZM82.6,18.822,60.631,6.76l6.645-3.649L89.243,15.173Zm0,0" transform="translate(-19.339)"/><path class="b" d="M493.453,198.563a1.453,1.453,0,1,0,1.027.426A1.457,1.457,0,0,0,493.453,198.563Zm0,0" transform="translate(-420.53 -169.718)"/><path class="b" d="M3.535,252.891H1.453a1.453,1.453,0,0,0,0,2.905H3.535a1.453,1.453,0,0,0,0-2.905Zm0,0" transform="translate(0 -216.154)"/><path class="b" d="M43.577,182.344a1.454,1.454,0,1,0-.426,1.027A1.461,1.461,0,0,0,43.577,182.344Zm0,0" transform="translate(-34.764 -154.613)"/></g></g></svg>