<svg xmlns="http://www.w3.org/2000/svg" width="123" height="123" viewBox="0 0 123 123"><defs><style>.a{fill:#64ba02;}.b{fill:#fff;}</style></defs><g transform="translate(-321 -465)"><circle class="a" cx="61.5" cy="61.5" r="61.5" transform="translate(321 465)"/><g transform="translate(349.381 493.47)"><path class="b" d="M64.883,57.323l-6.839-11.4.612-5.236h.871a2.8,2.8,0,0,0,2.8-2.8V34.685a2.8,2.8,0,0,0-2.8-2.8h-3.84V28.215c0-.01,0-.02,0-.03a.978.978,0,0,0-.213-.611v0L52.082,23.31V19.73a2.144,2.144,0,0,0-2.141-2.142H45.992c-.025-.051-.051-.1-.076-.148-.487-.915-1.827-2.087-3.986-3.483a1.561,1.561,0,0,1-.714-1.318v-2.6a1.277,1.277,0,0,0,.711-1.143V3.427A3.43,3.43,0,0,0,38.5,0H34.768a3.43,3.43,0,0,0-3.427,3.427V8.892a1.276,1.276,0,0,0,.711,1.143v2.6a1.562,1.562,0,0,1-.715,1.319c-.357.23-.756.5-1.163.787,0-.076.005-.152.005-.229a5.239,5.239,0,1,0-10.36,1.1c.118.558.228,1.076.33,1.56a3.749,3.749,0,0,0-4.167,5.9,3.7,3.7,0,0,0,.566.562l2.924,2.356a8.251,8.251,0,0,0-2.8,5.892H11.987l-.2-.385.092-.048c3.141-1.671,5.761-4.415,4.69-6.427s-4.81-1.374-7.95.3l-.092.049L7.2,22.891l.092-.048a13.057,13.057,0,0,0,3.8-2.93c1.463-1.741,1.183-2.938.886-3.5s-1.133-1.46-3.4-1.22a13.068,13.068,0,0,0-4.555,1.517l-.092.049-.99-1.86a7.009,7.009,0,0,1-.832-3.325A7.1,7.1,0,0,1,15.485,8.236l1.692,3.183a.982.982,0,0,0,1.735-.922L17.219,7.313a9.062,9.062,0,1,0-16,8.511L9.762,31.887h-4a2.8,2.8,0,0,0-2.8,2.8v3.206a2.8,2.8,0,0,0,2.8,2.8h.87l.613,5.236L.406,57.323a2.834,2.834,0,0,0,2.032,4.263,2.831,2.831,0,0,0,2.827-1.348l3.058-5.1.221,1.892a.983.983,0,0,0,.975.868.971.971,0,0,0,.115-.007.982.982,0,0,0,.862-1.09l-.516-4.423L16.995,40.69h31.3l7.017,11.693L54.078,62.922a2.455,2.455,0,0,1-2.439,2.171H13.649a2.455,2.455,0,0,1-2.439-2.172l-.259-2.215A.982.982,0,1,0,9,60.935l.259,2.214a4.42,4.42,0,0,0,4.391,3.909H51.639a4.419,4.419,0,0,0,4.39-3.908l.937-8.008,3.059,5.1a2.833,2.833,0,1,0,4.858-2.915ZM9.537,27.058c3.164-1.683,5.148-1.382,5.294-1.109s-.715,2.087-3.878,3.77l-.092.049-1.415-2.66.092-.049Zm-4.58-8.611A11.244,11.244,0,0,1,8.8,17.15c.977-.1,1.406.1,1.453.189s-.024.558-.655,1.31a11.242,11.242,0,0,1-3.223,2.459l-.092.049L4.865,18.5l.091-.049ZM56.39,43.168,54.9,40.69h1.777ZM36.473,31.886v-3.36l3.1-3.892H50.626L52.669,27.2h-4.45a.982.982,0,0,0,0,1.965h5.5v2.72ZM50.118,19.729V22.67H40.079V19.729a.177.177,0,0,1,.177-.177h9.686a.177.177,0,0,1,.177.177ZM34.768,1.965H38.5a1.464,1.464,0,0,1,1.462,1.462V8.2H33.305V3.427a1.464,1.464,0,0,1,1.462-1.462ZM32.4,15.608a3.518,3.518,0,0,0,1.614-2.969V10.168h5.235v2.471a3.518,3.518,0,0,0,1.613,2.969,19.026,19.026,0,0,1,2.651,1.98H40.255a2.143,2.143,0,0,0-2.141,2.141v3.58l-3.392,4.263a.98.98,0,0,0-.214.611v3.7H33.2a8.255,8.255,0,0,0-2.8-5.892l1.185-.955,1.737-1.4a3.769,3.769,0,0,0,.565-.56,3.749,3.749,0,0,0-3.283-6.1c-.058.006-.116.013-.172.021.537-.428,1.2-.9,1.964-1.393Zm-3.413,5.085c.27-.383.516-1.627,1.82-1.759a1.785,1.785,0,0,1,1.29,3.174l-1.739,1.4-1.647,1.327q-.267-.137-.545-.256ZM24.94,11.241a3.278,3.278,0,0,1,3.2,3.971l-.382,1.8c0,.01,0,.019-.006.029l-1.476,6.986a8.351,8.351,0,0,0-2.671,0l-.012-.057c-.341-1.617-.707-3.35-1.853-8.767a3.272,3.272,0,0,1,3.2-3.967Zm-7.431,10.6A1.785,1.785,0,1,1,20.484,19.9l.409.8c.369,1.746.578,2.734.777,3.682l.042.2q-.278.118-.545.256a43.907,43.907,0,0,1-3.659-3Zm7.431,4.051a6.313,6.313,0,0,1,6.3,6H18.642a6.313,6.313,0,0,1,6.3-6ZM8.61,40.69h1.777L8.9,43.168ZM3.579,59.227a.867.867,0,0,1-.867.413h0a.869.869,0,0,1-.622-1.307L9.1,46.658l0,0,3.847-6.411c.013-.021.027-.042.038-.064l2.143-3.571a.868.868,0,1,1,1.489.894l-1,1.673c-.011.017-.021.035-.032.053Zm14.594-20.5.127-.212A2.833,2.833,0,1,0,13.443,35.6l-1.877,3.127h-5.8a.835.835,0,0,1-.834-.834V34.685a.835.835,0,0,1,.834-.834H59.528a.835.835,0,0,1,.834.834v3.206a.835.835,0,0,1-.834.834h-5.8L51.847,35.6a2.833,2.833,0,1,0-4.858,2.915l.127.212Zm44.4,20.915a.915.915,0,0,1-.867-.413L48.673,37.5a.868.868,0,1,1,1.489-.894l6.026,10.041,0,.008L63.2,58.334a.869.869,0,0,1-.622,1.307Zm0,0" transform="translate(0)"/><path class="b" d="M136.969,337.194v-3.25a2.623,2.623,0,1,0-5.247,0v3.25a2.623,2.623,0,1,0,5.247,0Zm-3.282,0v-3.25a.659.659,0,1,1,1.318,0v3.25a.659.659,0,0,1-1.318,0Zm0,0" transform="translate(-114.47 -287.927)"/><path class="b" d="M185.715,418.271v-3.25a2.623,2.623,0,1,0-5.247,0v3.25a2.623,2.623,0,1,0,5.247,0Zm-3.282,0v-3.25a.659.659,0,1,1,1.317,0v3.25a.659.659,0,1,1-1.317,0Zm0,0" transform="translate(-156.832 -358.386)"/><path class="b" d="M234.461,337.194v-3.25a2.623,2.623,0,1,0-5.247,0v3.25a2.623,2.623,0,1,0,5.247,0Zm-3.282,0v-3.25a.659.659,0,1,1,1.317,0v3.25a.659.659,0,1,1-1.317,0Zm0,0" transform="translate(-199.193 -287.927)"/><path class="b" d="M283.2,418.271v-3.25a2.624,2.624,0,0,0-5.247,0v3.25a2.624,2.624,0,1,0,5.247,0Zm-3.282,0v-3.25a.659.659,0,1,1,1.317,0v3.25a.659.659,0,1,1-1.317,0Zm0,0" transform="translate(-241.552 -358.386)"/><path class="b" d="M331.95,337.194v-3.25a2.624,2.624,0,1,0-5.247,0v3.25a2.624,2.624,0,0,0,5.247,0Zm-3.282,0v-3.25a.659.659,0,1,1,1.318,0v3.25a.659.659,0,0,1-1.318,0Zm0,0" transform="translate(-283.914 -287.927)"/></g></g></svg>